<?xml version="1.0" standalone="no"?>
<!DOCTYPE svg PUBLIC "-//W3C//DTD SVG 20010904//EN"
 "http://www.w3.org/TR/2001/REC-SVG-20010904/DTD/svg10.dtd">
<svg version="1.0" xmlns="http://www.w3.org/2000/svg"
 width="576.000000pt" height="576.000000pt" viewBox="0 0 576.000000 576.000000"
 preserveAspectRatio="xMidYMid meet">
<metadata>
Created by potrace 1.11, written by Peter Selinger 2001-2013
</metadata>
<g transform="translate(0.000000,576.000000) scale(0.100000,-0.100000)"
fill="#000000" stroke="none">
<path d="M516 4802 c-2 -1 -32 -4 -67 -6 -74 -5 -88 -8 -149 -32 -142 -55
-261 -200 -290 -349 -8 -44 -10 -469 -7 -1560 2 -825 6 -1509 8 -1520 47 -206
231 -361 439 -371 41 -2 75 -4 75 -4 0 0 46 -2 103 -3 56 -1 102 2 102 6 0 5
4 6 8 3 9 -5 63 -7 257 -7 66 0 125 0 130 0 6 -1 28 0 50 0 22 1 47 0 55 0 8
-1 38 -1 65 0 28 0 57 0 65 0 8 0 33 0 55 1 22 0 93 0 158 -2 64 -2 117 1 117
5 0 5 4 6 8 3 9 -5 68 -7 255 -6 65 0 121 -2 126 -4 4 -3 13 -1 19 3 7 4 33 5
57 1 25 -4 45 -4 45 -1 0 3 27 6 60 6 33 0 60 -2 60 -5 0 -3 74 -5 165 -5 91
0 165 4 165 8 0 5 4 6 8 3 9 -5 63 -7 257 -7 66 0 125 0 130 0 6 -1 28 0 50 0
22 1 47 0 55 0 8 -1 38 -1 65 0 28 0 57 0 65 0 8 0 33 0 55 1 22 0 93 0 158
-2 64 -2 117 1 117 5 0 5 4 6 8 3 9 -5 68 -7 255 -6 65 0 121 -2 126 -4 4 -3
13 -1 19 3 7 4 33 5 57 1 25 -4 45 -4 45 -1 0 3 27 6 60 6 33 0 60 -2 60 -5 0
-3 74 -5 165 -5 91 0 165 4 165 8 0 5 4 6 8 3 5 -3 37 -5 73 -6 112 -1 303 -1
339 0 19 1 40 2 45 2 112 -8 309 0 355 13 30 8 63 17 72 19 30 8 122 72 165
116 54 55 108 159 123 235 8 44 10 471 8 1570 -3 1457 -4 1512 -22 1560 -72
189 -228 306 -424 321 -43 3 -80 8 -84 10 -4 2 -9 0 -13 -6 -4 -6 -10 -8 -15
-5 -5 3 -30 5 -57 5 -26 0 -57 0 -68 0 -11 0 -38 -1 -60 -1 -22 -1 -49 0 -60
0 -82 5 -245 5 -245 1 0 -3 -32 -3 -71 0 -39 3 -74 3 -79 0 -4 -3 -51 -3 -104
0 -53 3 -96 3 -96 0 0 -3 -27 -5 -60 -5 -33 0 -60 2 -60 5 0 6 -109 4 -116 -2
-2 -3 -24 -2 -49 2 -24 4 -49 4 -55 0 -6 -3 -32 -4 -58 -1 -26 3 -81 4 -122 1
-41 -3 -96 -2 -122 1 -26 3 -52 2 -58 -1 -6 -4 -31 -4 -55 0 -25 4 -45 4 -45
1 0 -3 -27 -6 -60 -6 -33 0 -60 2 -60 5 0 3 -30 4 -67 3 -147 -5 -323 -4 -331
1 -4 2 -14 1 -20 -3 -7 -4 -33 -5 -57 -1 -25 4 -45 4 -45 1 0 -3 -27 -6 -60
-6 -33 0 -60 2 -60 5 0 3 -81 5 -180 5 -99 0 -180 -2 -180 -5 0 -3 -27 -5 -60
-5 -33 0 -60 2 -60 5 0 4 -107 4 -120 -1 -3 -1 -8 -1 -11 -1 -3 1 -24 1 -45 1
-65 1 -134 2 -227 4 -48 1 -87 -2 -87 -6 0 -5 -4 -6 -8 -3 -9 5 -63 7 -257 7
-66 0 -124 0 -130 0 -5 1 -28 0 -50 0 -22 -1 -47 0 -55 0 -8 1 -37 1 -65 0
-27 0 -57 0 -65 0 -8 0 -33 0 -55 -1 -22 0 -93 0 -158 2 -64 2 -117 1 -117 -2
0 -3 -32 -3 -71 0 -39 3 -74 3 -79 0 -4 -3 -52 -3 -105 0 -53 3 -98 4 -99 2z
m412 -647 c67 0 122 2 122 5 0 3 36 3 81 -1 73 -5 83 -8 112 -37 33 -33 39
-64 36 -187 0 -27 0 -57 0 -65 1 -8 1 -33 0 -55 0 -22 0 -47 0 -55 2 -42 0
-129 -3 -147 -11 -56 -66 -94 -133 -94 -102 1 -127 2 -135 7 -4 3 -8 2 -8 -3
0 -4 -27 -8 -60 -8 -33 0 -60 2 -60 5 0 3 -33 4 -72 3 -80 -2 -124 13 -148 49
-18 30 -26 199 -18 428 4 96 21 132 73 149 38 13 79 18 85 11 3 -3 60 -5 128
-5z m844 1 c4 3 54 5 98 3 8 0 38 0 65 0 52 1 62 1 130 0 35 0 62 -2 101 -7
23 -4 62 -54 68 -86 7 -36 9 -241 4 -386 -3 -66 -8 -91 -23 -111 -24 -33 -63
-50 -106 -49 -19 1 -101 1 -184 1 -244 -1 -274 4 -305 53 -13 20 -31 176 -20
176 3 0 4 39 3 87 -7 244 -6 248 46 297 17 17 31 27 31 23 0 -3 10 -3 23 2 12
5 32 5 43 0 12 -4 24 -6 26 -3z m1068 3 c0 3 27 6 60 6 33 0 60 -2 60 -5 0 -3
33 -4 72 -3 80 2 124 -13 148 -49 18 -30 26 -199 18 -428 -3 -94 -19 -127 -70
-149 -28 -13 -311 -17 -329 -5 -5 3 -9 1 -9 -3 0 -13 -152 2 -176 17 -32 20
-46 49 -50 104 -3 48 -5 122 -3 156 0 8 0 33 0 55 -1 22 -1 47 0 55 0 8 0 42
-1 75 0 33 1 70 4 81 13 59 68 96 136 92 22 -1 42 1 45 3 3 3 25 3 50 -1 25
-4 45 -4 45 -1z m1217 -4 c40 -6 91 -43 95 -69 5 -39 7 -66 7 -101 1 -69 1
-79 0 -135 -1 -53 0 -65 2 -92 1 -7 1 -33 0 -58 -1 -25 -1 -52 -1 -60 1 -32
-7 -51 -31 -76 -43 -47 -51 -48 -292 -41 -48 1 -87 0 -87 -3 0 -11 -156 7
-176 20 -47 29 -53 62 -54 265 -1 218 4 278 25 307 24 32 68 50 118 46 20 -1
38 0 41 2 6 7 302 2 353 -5z m929 2 c65 -5 93 -18 114 -51 15 -24 30 -176 17
-176 -4 0 -6 -4 -3 -8 6 -10 8 -130 4 -242 -4 -94 -19 -127 -70 -149 -28 -13
-311 -17 -329 -5 -5 3 -9 1 -9 -3 0 -13 -152 2 -176 17 -49 30 -59 89 -53 293
0 6 0 42 -1 79 -1 37 0 71 3 75 2 4 1 17 -3 28 -10 29 17 97 48 120 21 15 45
20 111 22 46 1 85 4 87 5 3 4 184 0 260 -5z m-3466 -957 c5 3 46 3 91 -1 78
-5 84 -8 114 -40 29 -32 32 -42 34 -104 1 -38 4 -72 7 -77 3 -4 0 -8 -6 -8 -6
0 -9 -4 -6 -8 3 -5 5 -58 5 -118 0 -60 1 -126 1 -147 1 -67 -36 -121 -94 -133
-39 -9 -146 -9 -146 -1 0 5 -5 5 -10 2 -11 -7 -262 -7 -296 -1 -31 6 -61 27
-74 51 -15 28 -29 135 -18 141 4 3 6 9 4 13 -3 4 -5 50 -5 102 -1 52 -1 122
-1 157 -1 79 13 121 48 147 22 16 43 20 114 20 49 0 88 2 88 5 0 3 32 3 71 0
39 -3 74 -3 79 0z m960 0 c16 10 166 -7 188 -21 37 -23 53 -72 53 -156 -1 -43
0 -85 0 -93 1 -8 1 -35 0 -60 -1 -25 -1 -76 -1 -115 0 -38 -3 -83 -6 -100 -10
-57 -61 -96 -122 -95 -20 1 -70 1 -110 0 -40 0 -76 1 -80 4 -4 3 -14 1 -20 -3
-7 -4 -33 -5 -58 -1 -24 4 -47 4 -49 0 -6 -9 -114 6 -140 20 -49 26 -54 55
-55 270 0 63 0 143 0 178 -1 79 13 121 48 147 22 16 43 20 114 20 49 0 88 2
88 5 0 3 32 3 71 0 39 -3 74 -3 79 0z m812 -4 c4 3 54 5 98 3 8 0 38 0 65 1
81 2 150 -7 173 -21 37 -23 53 -71 53 -156 -1 -43 0 -85 0 -93 1 -8 1 -35 0
-60 -1 -25 -1 -76 -1 -115 0 -89 -7 -125 -29 -150 -28 -33 -57 -45 -108 -45
-26 0 -78 -1 -116 -2 -37 -2 -67 -1 -67 2 0 6 -119 4 -126 -2 -7 -8 -117 10
-139 22 -50 27 -55 52 -54 300 0 80 0 162 -1 183 -1 49 23 99 58 118 15 9 52
17 82 18 30 2 57 4 59 6 1 2 13 0 26 -5 13 -5 25 -7 27 -4z m960 0 c4 3 54 5
98 3 8 0 38 0 65 1 81 2 150 -7 173 -21 37 -23 53 -71 53 -156 -1 -43 0 -85 0
-93 1 -8 1 -35 0 -60 -1 -25 -1 -76 -1 -115 -1 -162 -32 -197 -173 -193 -42 2
-77 1 -77 -2 0 -3 -32 -3 -71 0 -39 3 -74 3 -79 0 -5 -3 -46 -3 -91 1 -78 5
-84 8 -114 40 -29 32 -32 42 -34 104 -1 38 -4 72 -7 77 -3 4 0 8 6 8 6 0 9 4
6 8 -3 5 -5 58 -5 118 0 60 -1 126 -1 147 -1 49 23 99 58 118 15 9 52 17 82
18 30 2 57 4 59 6 1 2 13 0 26 -5 13 -5 25 -7 27 -4z m-3324 -961 c67 0 122 2
122 5 0 3 36 3 81 -1 73 -5 83 -8 112 -37 35 -35 36 -45 37 -247 1 -283 -6
-315 -72 -344 -28 -13 -311 -17 -329 -5 -5 3 -9 1 -9 -3 0 -13 -152 2 -176 17
-47 29 -53 62 -54 265 -1 218 4 278 25 307 20 27 55 44 105 50 14 2 27 1 30
-2 3 -3 60 -5 128 -5z m844 1 c4 4 58 5 98 3 8 -1 38 -1 65 0 28 0 57 0 65 0
8 0 33 0 55 1 22 0 93 0 158 -2 64 -2 117 -1 117 2 0 3 32 3 71 0 39 -3 74 -3
79 0 4 3 51 3 104 0 53 -3 96 -3 96 0 0 3 27 5 60 5 33 0 60 -2 60 -5 0 -4
107 -4 120 1 3 1 8 1 11 1 3 -1 24 -1 45 -1 62 -1 131 -2 242 -4 56 -1 102 0
102 3 0 3 27 5 60 5 33 0 60 -2 60 -5 0 -6 109 -4 116 2 2 3 24 2 49 -2 24 -4
50 -3 57 1 6 4 15 6 18 4 8 -5 72 -7 200 -6 191 2 231 -6 260 -53 15 -24 30
-176 17 -176 -4 0 -6 -4 -3 -8 6 -10 8 -130 4 -242 -2 -66 -8 -91 -23 -111
-24 -32 -63 -50 -106 -49 -19 0 -92 1 -163 1 -71 0 -133 2 -138 5 -4 3 -8 2
-8 -3 0 -4 -27 -8 -60 -8 -33 0 -60 2 -60 5 0 4 -107 4 -120 -1 -3 -1 -8 -1
-11 -1 -3 1 -24 1 -45 1 -62 1 -131 2 -242 4 -56 1 -102 0 -102 -3 0 -3 -27
-5 -60 -5 -33 0 -60 2 -60 5 0 6 -109 4 -116 -2 -2 -3 -24 -2 -49 2 -24 4 -49
4 -55 0 -6 -3 -32 -4 -58 -1 -26 3 -81 4 -122 1 -41 -3 -96 -2 -122 1 -26 3
-52 2 -58 -1 -6 -4 -31 -4 -55 0 -25 4 -45 4 -45 1 0 -3 -27 -6 -60 -6 -33 0
-60 2 -60 5 0 3 -26 3 -57 0 -32 -3 -106 -3 -166 0 -59 3 -107 3 -107 0 0 -11
-156 7 -176 20 -47 29 -55 69 -53 260 0 58 1 110 0 115 0 6 0 39 -1 75 -1 36
3 76 8 90 10 24 72 91 72 77 0 -3 10 -3 23 2 12 5 32 5 43 0 12 -4 24 -6 26
-3z m3214 1 c65 -5 93 -18 114 -51 15 -24 30 -176 17 -176 -4 0 -6 -4 -3 -8 6
-10 8 -130 4 -242 -4 -94 -19 -127 -70 -149 -28 -13 -311 -17 -329 -5 -5 3 -9
1 -9 -3 0 -13 -152 2 -176 17 -49 31 -54 61 -53 300 0 80 0 160 -1 179 -1 49
17 93 48 116 21 15 45 20 111 22 46 1 85 4 87 5 3 4 184 0 260 -5z"/>
</g>
</svg>
